<svg xmlns="http://www.w3.org/2000/svg" width="109" height="30" viewBox="0 0 109 30" fill="none">
<g clip-path="url(#clip0_320_17922)">
<path d="M40.7069 28.1079C47.4198 28.1079 52.8617 22.666 52.8617 15.9531C52.8617 9.24016 47.4198 3.79825 40.7069 3.79825C33.9939 3.79825 28.552 9.24016 28.552 15.9531C28.552 22.666 33.9939 28.1079 40.7069 28.1079Z" stroke="#99A0AE" stroke-width="2.27904"/>
<path opacity="0.5" d="M40.7063 7.53751C41.8115 7.53751 42.9057 7.75517 43.9266 8.17806C44.9476 8.60095 45.8752 9.22078 46.6566 10.0022C47.438 10.7836 48.0578 11.7112 48.4807 12.7322C48.9035 13.7531 49.1213 14.8474 49.1213 15.9524C49.1213 17.0575 48.9035 18.1517 48.4807 19.1727C48.0578 20.1936 47.438 21.1213 46.6566 21.9026C45.8752 22.6841 44.9476 23.3039 43.9266 23.7268C42.9057 24.1497 41.8115 24.3673 40.7063 24.3673" stroke="#99A0AE" stroke-width="1.40248"/>
<path opacity="0.5" d="M40.6969 10.6932C41.3876 10.6932 42.0715 10.8292 42.7096 11.0935C43.3477 11.3578 43.9275 11.7451 44.4158 12.2336C44.9042 12.7219 45.2917 13.3017 45.5559 13.9398C45.8202 14.5779 45.9563 15.2618 45.9563 15.9524C45.9563 16.6432 45.8202 17.3271 45.5559 17.9651C45.2917 18.6032 44.9042 19.1829 44.4158 19.6714C43.9275 20.1597 43.3477 20.5471 42.7096 20.8115C42.0715 21.0758 41.3876 21.2118 40.6969 21.2118" stroke="#99A0AE" stroke-width="1.40248"/>
<path opacity="0.5" d="M40.7043 13.4981C41.3553 13.4981 41.9796 13.7567 42.4398 14.217C42.9002 14.6772 43.1587 15.3015 43.1587 15.9525C43.1587 16.6034 42.9002 17.2277 42.4398 17.6879C41.9796 18.1482 41.3553 18.4068 40.7043 18.4068" stroke="#99A0AE" stroke-width="1.40248"/>
<path d="M1.37952 3.41812V28.4875" stroke="#99A0AE" stroke-width="2.27904"/>
<path d="M21.1271 3.41812V28.4875" stroke="#99A0AE" stroke-width="2.27904"/>
<path fill-rule="evenodd" clip-rule="evenodd" d="M58.3724 28.4875V3.41812H60.6515V28.4875H58.3724Z" fill="#99A0AE"/>
<path fill-rule="evenodd" clip-rule="evenodd" d="M78.3742 28.8225L58.755 4.55822L60.5306 3.12946L80.1498 27.3937L78.3742 28.8225Z" fill="#99A0AE"/>
<path fill-rule="evenodd" clip-rule="evenodd" d="M78.1276 28.4875V3.41812H80.4066V28.4875H78.1276Z" fill="#99A0AE"/>
<path d="M87.0675 3.41812V28.4875" stroke="#99A0AE" stroke-width="2.27904"/>
<path d="M87.0675 17.4728L107.388 3.22876" stroke="#99A0AE" stroke-width="2.27904"/>
<path d="M93.33 13.1044L107.384 28.4879" stroke="#99A0AE" stroke-width="2.27904"/>
<path d="M1.56702 19.562H21.1287" stroke="#99A0AE" stroke-width="2.27904"/>
</g>
<defs>
<clipPath id="clip0_320_17922">
<rect width="108.48" height="29.76" fill="white"/>
</clipPath>
</defs>
</svg>