<svg xmlns="http://www.w3.org/2000/svg" width="108" height="24" viewBox="0 0 108 24" fill="none">
<path d="M10.7155 22.3309C4.60352 22.3309 0 17.46 0 11.4464C0 5.41284 4.36845 0.50177 10.7155 0.50177C14.0848 0.50177 16.4159 1.54411 18.2378 3.9295L15.2993 6.39505C14.0652 5.07207 12.5764 4.41058 10.7155 4.41058C6.58206 4.41058 4.30968 7.59776 4.30968 11.4464C4.30968 15.2951 6.79754 18.4221 10.7155 18.4221C12.5568 18.4221 14.124 17.7607 15.3581 16.4377L18.2574 19.0034C16.5139 21.2886 14.124 22.3309 10.7155 22.3309Z" fill="#99A0AE"/>
<path d="M30.9121 6.31405H34.8692V21.9493H30.9121V19.6641C30.0894 21.2878 28.7181 22.3702 26.0932 22.3702C21.901 22.3702 18.5511 18.702 18.5511 14.1918C18.5511 9.68163 21.901 6.01337 26.0932 6.01337C28.6986 6.01337 30.0894 7.09581 30.9121 8.71947V6.31405ZM31.0297 14.1918C31.0297 11.7463 29.3645 9.72173 26.7396 9.72173C24.2125 9.72173 22.567 11.7663 22.567 14.1918C22.567 16.5571 24.2125 18.6619 26.7396 18.6619C29.345 18.6619 31.0297 16.6173 31.0297 14.1918Z" fill="#99A0AE"/>
<path d="M37.6705 0H41.6275V21.9294H37.6705V0Z" fill="#99A0AE"/>
<path d="M43.3906 19.865C43.3906 18.5821 44.4093 17.4996 45.8001 17.4996C47.191 17.4996 48.1705 18.5821 48.1705 19.865C48.1705 21.188 47.1714 22.2704 45.8001 22.2704C44.4289 22.2704 43.3906 21.188 43.3906 19.865Z" fill="#99A0AE"/>
<path d="M63.3131 19.4236C61.8439 21.2276 59.6107 22.3702 56.9661 22.3702C52.245 22.3702 48.7777 18.702 48.7777 14.1918C48.7777 9.68163 52.245 6.01337 56.9661 6.01337C59.5127 6.01337 61.7264 7.09581 63.1956 8.79965L60.1396 11.3855C59.3756 10.4233 58.3765 9.70168 56.9661 9.70168C54.4391 9.70168 52.7935 11.7463 52.7935 14.1718C52.7935 16.5972 54.4391 18.6418 56.9661 18.6418C58.4941 18.6418 59.5519 17.8401 60.3354 16.7576L63.3131 19.4236Z" fill="#99A0AE"/>
<path d="M63.6461 14.1918C63.6461 9.68163 67.1134 6.01337 71.8345 6.01337C76.5556 6.01337 80.0228 9.68163 80.0228 14.1918C80.0228 18.702 76.5556 22.3702 71.8345 22.3702C67.1134 22.3501 63.6461 18.702 63.6461 14.1918ZM76.007 14.1918C76.007 11.7463 74.3615 9.72173 71.8345 9.72173C69.3075 9.70168 67.6619 11.7463 67.6619 14.1918C67.6619 16.6173 69.3075 18.6619 71.8345 18.6619C74.3615 18.6619 76.007 16.6173 76.007 14.1918Z" fill="#99A0AE"/>
<path d="M106.782 12.388V21.9295H102.825V13.3702C102.825 10.6641 101.571 9.50151 99.6908 9.50151C97.9277 9.50151 96.674 10.3835 96.674 13.3702V21.9295H92.717V13.3702C92.717 10.6641 91.4436 9.50151 89.5826 9.50151C87.8196 9.50151 86.272 10.3835 86.272 13.3702V21.9295H82.3149V6.29428H86.272V8.45916C87.0947 6.77537 88.5835 5.93347 90.8755 5.93347C93.05 5.93347 94.8718 7.01591 95.8708 8.84002C96.8699 6.97582 98.3391 5.93347 101.003 5.93347C104.255 5.95352 106.782 8.43912 106.782 12.388Z" fill="#99A0AE"/>
</svg>