<svg xmlns="http://www.w3.org/2000/svg" width="113" height="24" viewBox="0 0 113 24" fill="none">
<g clip-path="url(#clip0_491_2145)">
<g clip-path="url(#clip1_491_2145)">
<path fill-rule="evenodd" clip-rule="evenodd" d="M94.3671 0C94.3572 0.16096 94.3389 0.321851 94.3389 0.482741C94.3375 8.15859 94.3376 15.8344 94.3376 23.5103V24H88.9801C88.9719 23.9005 88.9581 23.8119 88.9581 23.7232C88.9573 15.8502 88.9574 7.97724 88.9578 0.104245C88.9578 0.0695198 88.9603 0.0347947 88.9616 0H94.3671Z" fill="#99A0AE"/>
<path fill-rule="evenodd" clip-rule="evenodd" d="M20.3339 23.3907C19.677 21.3141 19.0286 19.2656 18.3809 17.2168C17.7331 15.168 17.0861 13.1191 16.4088 10.9754C16.336 11.1665 16.2908 11.2738 16.2539 11.3839C14.9497 15.2772 13.6436 19.1699 12.3491 23.0663C12.2682 23.31 12.1737 23.4002 11.9041 23.3979C10.2065 23.3837 8.50877 23.3907 6.81102 23.3907H6.48561C4.32354 16.2023 2.16586 9.02872 0 1.82755H5.9269C7.1701 6.40743 8.41618 10.9979 9.68849 15.6849C9.94396 14.9179 10.1709 14.2425 10.3941 13.5658C11.6555 9.74255 12.9179 5.91966 14.1716 2.09396C14.2439 1.87329 14.3383 1.79791 14.5769 1.80003C15.9752 1.81266 17.3737 1.80624 18.7886 1.80624C20.2011 6.41357 21.6089 11.0055 23.0457 15.6919C24.4262 11.0093 25.7793 6.41992 27.1353 1.82038H33.0585C32.7942 2.6481 32.5373 3.45848 32.2766 4.2677C30.2684 10.5027 28.2562 16.7366 26.2595 22.9752C26.153 23.3078 26.0132 23.4037 25.6674 23.3999C23.9019 23.3801 22.136 23.3907 20.3339 23.3907Z" fill="#99A0AE"/>
<path fill-rule="evenodd" clip-rule="evenodd" d="M113 15.6131C112.999 20.2904 109.237 24.0019 104.498 24C99.8781 23.9981 96.1682 20.2154 96.1702 15.5085C96.1721 10.9539 99.961 7.2132 104.586 7.20002C109.226 7.18676 113.001 10.9609 113 15.6131Z" fill="#99A0AE"/>
<path fill-rule="evenodd" clip-rule="evenodd" d="M69.7234 15.5687C69.7391 10.9427 73.5149 7.19059 78.1449 7.2C82.7936 7.20941 86.5738 10.9949 86.5531 15.6201C86.532 20.3264 82.7488 24.0214 77.9732 23.9999C73.4455 23.9795 69.7079 20.1597 69.7234 15.5687Z" fill="#99A0AE"/>
<path fill-rule="evenodd" clip-rule="evenodd" d="M40.2845 7.2C45.1538 7.23468 48.8073 11.2289 48.6832 15.8292C48.5609 20.3585 44.8123 24.0716 40.14 23.9989C35.4643 23.9263 31.7992 20.0685 31.8571 15.4614C31.9141 10.9322 35.6914 7.19025 40.2845 7.2Z" fill="#99A0AE"/>
<path fill-rule="evenodd" clip-rule="evenodd" d="M51.0903 24V8.72057H56.5158V10.5153C56.543 10.5316 56.5703 10.5478 56.5975 10.5642C56.7488 10.4016 56.8991 10.238 57.0516 10.0766C57.9929 9.08059 59.1544 8.54441 60.5209 8.4423C61.7933 8.34721 63.0531 8.37954 64.2513 8.88734C65.9734 9.61724 66.8446 10.9954 67.175 12.7611C67.2622 13.2269 67.31 13.7068 67.3117 14.1805C67.3233 17.3794 67.3178 20.5783 67.3173 23.7773C67.3173 23.8439 67.3106 23.9105 67.306 23.9986H61.8676V23.5916C61.8676 21.2093 61.8781 18.8271 61.8605 16.4451C61.8559 15.8245 61.8191 15.1938 61.7008 14.5864C61.4337 13.2145 60.6553 12.6435 59.2545 12.7077C57.7024 12.7788 56.7431 13.6678 56.5667 15.2082C56.5345 15.4892 56.5179 15.7734 56.5175 16.0562C56.5138 18.5632 56.5153 21.0701 56.5153 23.5771V24H51.0903Z" fill="#99A0AE"/>
</g>
</g>
<defs>
<clipPath id="clip0_491_2145">
<rect width="113" height="24" fill="white"/>
</clipPath>
<clipPath id="clip1_491_2145">
<rect width="113" height="24" fill="white"/>
</clipPath>
</defs>
</svg>