<svg xmlns="http://www.w3.org/2000/svg" width="102" height="31" viewBox="0 0 102 31" fill="none">
<path d="M15.2472 0C23.6636 0 30.4943 6.83073 30.4943 15.2472C30.4943 23.6636 23.6636 30.4943 15.2472 30.4943C6.83073 30.4943 0 23.6636 0 15.2472C0 6.83073 6.83073 0 15.2472 0ZM15.2472 4.02525C9.02633 4.02525 4.02525 9.02632 4.02525 15.2472C4.02525 21.468 9.02633 26.4691 15.2472 26.4691C21.468 26.4691 26.4691 21.468 26.4691 15.2472C26.4691 9.02632 21.468 4.02525 15.2472 4.02525ZM93.6176 10.3071C98.1308 10.3071 101.363 13.6005 101.363 17.5038V17.5647C101.363 21.468 98.1308 24.8224 93.5567 24.8224C89.0435 24.8224 85.8111 21.529 85.8111 17.6257V17.5647C85.8111 13.6615 89.0435 10.3071 93.6176 10.3071ZM41.1064 6.03788C41.2893 5.97689 41.4723 6.15986 41.4723 6.28183V10.673H49.5838C49.7668 10.673 49.8888 10.795 49.9497 10.917L50.6206 13.4175L51.2305 15.918L51.2915 16.04L51.3525 15.7961L52.8772 10.734C52.9382 10.612 53.1212 10.4901 53.2431 10.4901H57.2684C57.4513 10.4901 57.5733 10.612 57.6343 10.734L59.22 16.162L59.281 15.918L60.6228 10.856C60.6837 10.734 60.8667 10.612 60.9887 10.612H71.3568C71.4787 10.612 71.6007 10.734 71.6007 10.917V24.2125C71.6007 24.3345 71.4787 24.4565 71.3568 24.4565H66.1727C66.0508 24.4565 65.9288 24.3345 65.9288 24.2125V11.4049L62.0255 24.2125C61.9645 24.3345 61.7815 24.4565 61.6596 24.4565H57.3904C57.2074 24.4565 57.0854 24.3345 57.0244 24.2125L56.1706 21.529L55.2558 18.6015L53.4261 24.2735C53.3651 24.3955 53.1821 24.5175 53.0602 24.5175H48.791C48.608 24.5175 48.486 24.3955 48.425 24.2735L44.5827 11.5269V14.8203C44.5827 14.9422 44.4608 15.0642 44.3388 15.0642H41.4113V18.5406C41.4113 19.5774 41.8992 19.9433 42.8141 19.9433C43.302 19.9433 43.7289 19.8823 44.2778 19.6384C44.3998 19.6384 44.5827 19.6993 44.5827 19.8823V23.9076C43.6679 24.3955 42.3262 24.7004 40.9234 24.7004C37.569 24.7004 35.7394 23.1147 35.7394 19.7603V15.0032H34.3976C34.2756 15.0032 34.1537 14.8812 34.1537 14.7593V10.856C34.1537 10.734 34.2756 10.612 34.3976 10.612H35.7394V7.86754C35.7394 7.74556 35.8004 7.68457 35.9833 7.62359L41.1064 6.03788ZM78.1875 5.97689C78.3095 5.97689 78.4315 6.09887 78.4315 6.22085V24.2125C78.4315 24.3345 78.3095 24.4565 78.1875 24.4565H73.0035C72.8815 24.4565 72.7595 24.3345 72.7595 24.2125V6.22085C72.7595 6.09887 72.8815 5.97689 73.0035 5.97689H78.1875ZM85.0182 10.612C85.1402 10.612 85.2622 10.734 85.2622 10.917V24.2125C85.2622 24.3345 85.1402 24.4565 85.0182 24.4565H79.8342C79.7122 24.4565 79.5902 24.3345 79.5902 24.2125V10.856C79.5902 10.734 79.7122 10.612 79.8342 10.612H85.0182ZM19.0285 15.8571C20.78 15.8571 22.1999 17.2769 22.1999 19.0285C22.1999 20.78 20.78 22.1999 19.0285 22.1999C17.2769 22.1999 15.8571 20.78 15.8571 19.0285C15.8571 17.2769 17.2769 15.8571 19.0285 15.8571ZM11.4659 15.8571C13.2174 15.8571 14.6373 17.2769 14.6373 19.0285C14.6373 20.78 13.2174 22.1999 11.4659 22.1999C9.71435 22.1999 8.29446 20.78 8.29446 19.0285C8.29446 17.2769 9.71435 15.8571 11.4659 15.8571ZM93.5567 15.0642C92.2759 15.0642 91.3611 16.101 91.3611 17.4428V17.5038C91.3611 18.8455 92.3369 19.9433 93.6176 19.9433C94.8984 19.9433 95.8132 18.9065 95.8132 17.5647C95.8132 16.162 94.8374 15.0642 93.5567 15.0642ZM19.0285 8.29446C20.78 8.29446 22.1999 9.71435 22.1999 11.4659C22.1999 13.2174 20.78 14.6373 19.0285 14.6373C17.2769 14.6373 15.8571 13.2174 15.8571 11.4659C15.8571 9.71435 17.2769 8.29446 19.0285 8.29446ZM11.4659 8.29446C13.2174 8.29446 14.6373 9.71435 14.6373 11.4659C14.6373 13.2174 13.2174 14.6373 11.4659 14.6373C9.71435 14.6373 8.29446 13.2174 8.29446 11.4659C8.29446 9.71435 9.71435 8.29446 11.4659 8.29446ZM71.4178 5.97689C71.6007 5.97689 71.7227 6.09887 71.6617 6.22085V9.33127C71.6617 9.45325 71.5397 9.57522 71.4178 9.57522H66.0508C65.9288 9.57522 65.8068 9.45325 65.8068 9.33127V6.22085C65.8068 6.09887 65.9288 5.97689 66.0508 5.97689H71.4178ZM85.0792 5.97689C85.2622 5.97689 85.3842 6.09887 85.3232 6.22085V9.33127C85.3232 9.45325 85.2012 9.57522 85.0792 9.57522H79.7122C79.5902 9.57522 79.4683 9.45325 79.4683 9.33127V6.22085C79.4683 6.09887 79.5902 5.97689 79.7122 5.97689H85.0792Z" fill="#99A0AE"/>
</svg>