<svg xmlns="http://www.w3.org/2000/svg" width="138" height="35" viewBox="0 0 138 35" fill="none">
<path d="M2.85582 10.7977L0.27353 12.9878C-0.0911768 13.2983 -0.0911768 13.8572 0.27353 14.1677L2.85582 16.3453" fill="#99A0AE"/>
<path d="M23.235 19.7933L25.8173 17.6032C26.1819 17.2927 26.1819 16.7338 25.8173 16.4233L23.235 14.2457" fill="#99A0AE"/>
<path d="M16.4401 7.43298C16.1676 7.43298 15.9119 7.48266 15.6478 7.51163C16.1383 8.43901 16.4401 9.47402 16.4401 10.5918V18.6565C16.4401 22.0927 13.8117 24.8955 10.4371 25.2847C11.569 27.4332 13.8201 28.9154 16.4401 28.9154C20.1919 28.9154 23.2354 25.9097 23.2354 22.2086V14.1439C23.2354 10.4386 20.1919 7.43298 16.4401 7.43298Z" fill="#99A0AE"/>
<path d="M9.65173 22.2102V14.1455C9.65173 10.7093 12.2801 7.90654 15.6547 7.51737C14.5229 5.36872 12.2717 3.8866 9.65173 3.8866C5.89986 3.8866 2.85645 6.89223 2.85645 10.5934V18.6581C2.85645 22.3634 5.89986 25.3649 9.65173 25.3649C9.92002 25.3649 10.1799 25.3152 10.4398 25.2863C9.95356 24.363 9.65173 23.328 9.65173 22.2102Z" fill="#99A0AE"/>
<path d="M35.0997 29.4485C33.4915 29.4485 31.9416 29.158 31.1226 28.6638L32.6725 25.3221C33.0819 25.6127 33.7545 25.787 34.5441 25.787C35.9184 25.787 36.942 25.1768 36.942 23.5786V8.78746H41.0358V23.7239C41.0358 27.676 38.5209 29.4485 35.0997 29.4485ZM50.3272 29.4776C47.052 29.4776 44.5372 27.0656 44.5372 23.2589V14.0181H48.4849V22.3C48.4849 24.9153 49.5669 26.0487 51.5259 26.0487C53.1928 26.0487 54.6841 24.9153 54.6841 22.3V14.0181H58.6318V29.1289H54.801V26.8622C54.0701 28.6058 52.6958 29.4776 50.3272 29.4776ZM67.3354 29.5065C64.7619 29.5065 62.686 28.635 61.0191 26.8622L63.68 24.4504C64.7913 25.6999 65.9609 26.3101 67.2475 26.3101C68.5927 26.3101 69.353 25.6418 69.353 24.7409C69.353 23.9563 68.9728 23.5204 66.5751 22.9683C62.5104 22.0094 61.8964 20.1787 61.8964 18.2607C61.8964 15.6164 64.0016 13.6403 67.5692 13.6403C70.0257 13.6403 71.663 14.2506 73.2129 16.2557L70.3473 18.4351C69.6161 17.2727 68.6804 16.8078 67.6571 16.8078C66.5751 16.8078 65.7562 17.2146 65.7562 18.1445C65.7562 18.6676 65.9902 19.1325 67.8031 19.5975C72.2186 20.7308 73.2422 22.3581 73.2422 24.6247C73.2422 27.4144 70.698 29.5065 67.3354 29.5065ZM81.454 29.1289C78.4421 29.1289 76.8045 27.734 76.8045 24.4504V17.3599H74.6699V14.0181H76.8045V10.9669L80.7523 10.5601V14.0181H83.9688V17.3599H80.7523V24.2469C80.7523 25.2059 81.2203 25.6418 81.9806 25.6418H83.6179V29.1289H81.454ZM96.6929 29.5065C90.6105 29.5065 86.0194 24.799 86.0194 18.9872C86.0194 13.1464 90.3765 8.40972 96.6929 8.40972C100.026 8.40972 102.336 9.42678 104.179 11.6062L101.284 14.1053C100.055 12.8267 98.5348 12.1874 96.6929 12.1874C92.7451 12.1874 90.2595 15.2677 90.2595 18.9872C90.2595 22.7068 92.7451 25.729 96.7805 25.729C98.7688 25.729 100.26 25.0606 101.459 23.7529L104.442 26.2812C102.892 28.1408 100.26 29.5065 96.6929 29.5065ZM113.063 29.5065C108.881 29.5065 105.547 25.9904 105.547 21.6316C105.547 17.2727 108.881 13.6985 113.063 13.6985C115.694 13.6985 117.069 14.7737 117.888 16.401V14.0181H121.806V29.1289H117.975V26.6588C117.157 28.3733 115.782 29.5065 113.063 29.5065ZM109.495 21.6026C109.495 23.8982 111.191 25.9613 113.706 25.9613C116.309 25.9613 117.975 23.9854 117.975 21.6316C117.975 19.2778 116.309 17.2437 113.706 17.2437C111.191 17.2437 109.495 19.2488 109.495 21.6026ZM125.321 29.1289V7.91571H129.269V29.1289H125.321ZM132.773 29.1289V7.91571H136.721V29.1289H132.773Z" fill="#99A0AE"/>
</svg>