<svg xmlns="http://www.w3.org/2000/svg" width="62" height="24" viewBox="0 0 62 24" fill="none">
<path d="M56.0584 1.75776C53.4335 2.22646 52.0335 4.21832 52.0335 7.67485C52.0335 11.19 53.9 13.5335 56.6418 13.5335C57.9834 13.5335 59.15 13.0648 61.6 11.8344V14.7052C58.625 16.1112 56.875 16.4627 54.5418 16.4627C51.9168 16.4627 50.05 15.8183 48.5917 14.2365C47.075 12.7132 46.2583 10.7213 46.2583 8.43639C46.2583 3.4567 49.9916 0.000167561 55.4166 0.000167561C58.975 0.000167561 61.4834 1.69919 61.4834 4.10119C61.4834 5.68299 60.3166 6.79618 58.625 6.79618C57.75 6.79618 57.0499 6.50326 56.0583 5.97591M42.9334 8.43647C45.325 5.44864 46.2001 4.21832 46.2001 2.75364C46.2001 1.28897 45.0334 0 43.4001 0C42.4667 0 41.5918 0.527351 41.1835 0.996053V7.1475L37.275 12.4202V0.46887H33.5417L27.3583 10.7214V0.46887H25.2582L19.5999 1.75784V3.22243L22.6916 3.51527V16.2285H26.5999L32.5499 6.38604V16.2285H36.9249M7.75835 14.2365H8.63332C11.7832 14.2365 13.5332 12.3031 13.5332 8.43639C13.5332 5.21429 12.1334 3.4567 9.5082 3.4567C9.15823 3.4567 8.63323 3.51526 7.75826 3.69105V14.2364L7.75835 14.2365ZM7.75835 21.1496L10.3249 21.7354V23.2H0.233342V21.7354L2.56659 21.1496V3.45661H0V1.99203L6.12495 0.117301H7.75843V2.22646C10.6167 0.468868 11.6084 0.17595 13.125 0.17595C16.5084 0.17595 19.075 3.33956 19.075 7.73358C19.075 12.7719 15.6333 16.2285 10.3833 16.2285C9.79994 16.2285 8.80826 16.1699 7.75835 16.1113" fill="#99A0AE"/>
</svg>